<?xml version="1.0" encoding="UTF-8"?><svg id="Calque_1" xmlns="http://www.w3.org/2000/svg" viewBox="0 0 1039.69 146.71"><path d="M229.53,103.94h-11.32v-26.79h-33.68v26.79h-11.23V39.13h11.23v26.79h33.68v-26.79h11.32v64.81Z" fill="#1d1d1b"/><path d="M294.24,103.94h-44.54c-3.19,0-5.94-1.15-8.24-3.44-2.3-2.3-3.45-5.05-3.45-8.24v-41.44c0-3.28,1.13-6.05,3.38-8.3,2.25-2.25,5.02-3.38,8.3-3.38h44.54v11.18h-45v15.61h45v11.23h-45v15.56h45v11.23Z" fill="#1d1d1b"/><path d="M333.99,71.53l21.59,32.4h-13.19l-14.97-22.64-14.97,22.64h-13.1l21.59-32.4-21.59-32.4h13.1l14.97,22.59,14.97-22.59h13.19l-21.59,32.4Z" fill="#1d1d1b"/><path d="M406.92,39.13c3.29,0,6.06,1.13,8.31,3.38,2.25,2.25,3.38,5.02,3.38,8.3v53.12h-11.32v-22.13h-33.68v22.13h-11.23v-53.12c0-3.28,1.13-6.05,3.38-8.3,2.25-2.25,5.02-3.38,8.3-3.38h32.86ZM407.29,70.62v-20.31h-33.68v20.31h33.68Z" fill="#1d1d1b"/><path d="M483.32,103.94h-44.54c-3.19,0-5.94-1.15-8.24-3.44-2.3-2.3-3.44-5.05-3.44-8.24v-41.44c0-3.28,1.12-6.05,3.37-8.3,2.25-2.25,5.02-3.38,8.31-3.38h44.54v11.18h-45v42.4h33.69v-15.56h-20.68v-11.23h31.99v38.02Z" fill="#1d1d1b"/><path d="M557.08,50.81v41.44c0,3.28-1.13,6.05-3.38,8.3-2.25,2.25-5.02,3.38-8.31,3.38h-42.12c-3.19,0-5.94-1.15-8.24-3.44-2.3-2.3-3.45-5.05-3.45-8.24v-41.44c0-3.28,1.13-6.05,3.38-8.3s5.02-3.38,8.3-3.38h42.4c3.23,0,5.93,1.14,8.12,3.42,2.19,2.28,3.29,5.04,3.29,8.26ZM545.85,92.71v-42.4h-43.04v42.4h43.04Z" fill="#1d1d1b"/><path d="M610.43,84.13v-45h11.32v64.81h-11.32l-33.68-45.18v45.18h-11.23V39.13h11.23l33.68,45Z" fill="#1d1d1b"/><path d="M686.46,103.94h-44.54c-3.19,0-5.94-1.15-8.24-3.44-2.3-2.3-3.44-5.05-3.44-8.24v-41.44c0-3.28,1.13-6.05,3.38-8.3,2.25-2.25,5.02-3.38,8.3-3.38h44.54v11.18h-45v15.61h45v11.23h-45v15.56h45v11.23Z" fill="#1d1d1b"/><path d="M775.41,50.31h-22.54v53.62h-11.14v-53.62h-22.54v-11.18h56.23v11.18Z" fill="#1d1d1b"/><path d="M845.97,50.81v41.44c0,3.28-1.13,6.05-3.38,8.3-2.25,2.25-5.02,3.38-8.31,3.38h-42.12c-3.19,0-5.94-1.15-8.24-3.44-2.3-2.3-3.44-5.05-3.44-8.24v-41.44c0-3.28,1.13-6.05,3.38-8.3,2.25-2.25,5.02-3.38,8.3-3.38h42.4c3.23,0,5.93,1.14,8.12,3.42,2.19,2.28,3.29,5.04,3.29,8.26ZM834.74,92.71v-42.4h-43.04v42.4h43.04Z" fill="#1d1d1b"/><path d="M910.64,92.26c0,3.22-1.14,5.98-3.42,8.26-2.28,2.28-5.04,3.42-8.26,3.42h-32.86c-3.19,0-5.94-1.15-8.24-3.44-2.3-2.3-3.44-5.05-3.44-8.24v-53.12h11.23v53.58h33.68v-53.58h11.32v53.12Z" fill="#1d1d1b"/><path d="M975.31,103.94h-15.79l-19.58-25.83h-9.63v25.83h-11.23V39.13h44.54c3.28,0,6.05,1.13,8.3,3.38,2.25,2.25,3.38,5.02,3.38,8.3v15.61c0,3.23-1.14,5.98-3.42,8.26-2.28,2.28-5.04,3.42-8.26,3.42h-7.48l19.17,25.83ZM963.99,50.31h-33.68v16.56h33.68v-16.56Z" fill="#1d1d1b"/><path d="M1039.62,92.26v.13c0,3.14-1.14,5.83-3.42,8.08-2.31,2.31-5.07,3.47-8.26,3.47h-44.54v-12.14h43.04v-14.65h-31.36c-3.77,0-6.51-.84-8.21-2.51-2.31-2.28-3.47-5.02-3.47-8.21v-15.61c0-3.28,1.13-6.05,3.38-8.3,2.25-2.25,5.02-3.38,8.3-3.38h44.54v11.18h-43.13v15.61h31.36c3.92,0,6.69.82,8.31,2.46,2.22,2.28,3.35,5.05,3.37,8.3l.09,15.56Z" fill="#1d1d1b"/><path d="M734.21,114.98l11.46,24.57h-2.65l-3.86-8.08h-10.58l-3.83,8.08h-2.74l11.61-24.57h.6ZM733.91,120.2l-4.21,8.89h8.4l-4.19-8.89Z" fill="#1d1d1b"/><path d="M763.39,121.38h2.34v14.48c0,2.55-.22,4.42-.67,5.6-.61,1.67-1.68,2.96-3.19,3.86-1.51.9-3.34,1.35-5.46,1.35-1.56,0-2.96-.22-4.2-.66-1.24-.44-2.25-1.03-3.03-1.77-.78-.74-1.5-1.83-2.15-3.26h2.54c.69,1.2,1.58,2.09,2.68,2.67s2.45.87,4.06.87,2.94-.3,4.04-.89c1.1-.59,1.88-1.34,2.35-2.24.47-.9.7-2.35.7-4.35v-.93c-.88,1.11-1.96,1.97-3.23,2.56-1.27.6-2.62.89-4.05.89-1.67,0-3.24-.42-4.71-1.24-1.47-.83-2.61-1.95-3.41-3.35-.8-1.4-1.2-2.95-1.2-4.62s.42-3.25,1.25-4.7c.84-1.45,1.99-2.6,3.47-3.45,1.48-.84,3.03-1.27,4.67-1.27,1.36,0,2.63.28,3.8.84,1.17.56,2.31,1.49,3.4,2.78v-3.16ZM756.49,123.16c-1.33,0-2.55.32-3.69.96-1.13.64-2.03,1.52-2.67,2.66-.65,1.13-.97,2.35-.97,3.66,0,1.99.67,3.64,2,4.94,1.34,1.3,3.07,1.95,5.19,1.95s3.88-.65,5.19-1.94c1.31-1.29,1.96-2.99,1.96-5.09,0-1.37-.3-2.59-.9-3.67-.6-1.07-1.45-1.92-2.55-2.55-1.1-.62-2.29-.93-3.56-.93Z" fill="#1d1d1b"/><path d="M784.67,133.52l1.97,1.04c-.65,1.27-1.39,2.29-2.24,3.07-.84.78-1.8,1.37-2.86,1.78-1.06.41-2.25.61-3.59.61-2.96,0-5.28-.97-6.95-2.91-1.67-1.94-2.51-4.14-2.51-6.59,0-2.31.71-4.36,2.12-6.16,1.79-2.29,4.19-3.44,7.2-3.44s5.57,1.17,7.42,3.52c1.31,1.66,1.98,3.73,2,6.21h-16.35c.04,2.11.72,3.84,2.02,5.19,1.3,1.35,2.91,2.02,4.83,2.02.92,0,1.82-.16,2.7-.48.87-.32,1.62-.75,2.23-1.28.61-.53,1.27-1.39,1.99-2.58ZM784.67,128.63c-.31-1.25-.77-2.24-1.36-2.99-.6-.74-1.38-1.34-2.37-1.8-.98-.46-2.01-.69-3.09-.69-1.79,0-3.32.57-4.6,1.72-.94.83-1.65,2.09-2.13,3.76h13.54Z" fill="#1d1d1b"/><path d="M790.23,121.38h2.34v3.25c.93-1.25,1.97-2.18,3.11-2.8,1.13-.62,2.37-.93,3.71-.93s2.56.35,3.62,1.04c1.05.69,1.83,1.62,2.33,2.79.5,1.17.75,2.99.75,5.46v9.35h-2.34v-8.67c0-2.09-.09-3.49-.26-4.19-.27-1.2-.79-2.11-1.56-2.71-.77-.61-1.77-.91-3.01-.91-1.41,0-2.68.47-3.8,1.4-1.12.93-1.86,2.09-2.21,3.47-.22.9-.33,2.55-.33,4.94v6.66h-2.34v-18.17Z" fill="#1d1d1b"/><path d="M827.35,125.15l-1.85,1.15c-1.6-2.13-3.79-3.19-6.56-3.19-2.21,0-4.05.71-5.51,2.14-1.46,1.42-2.19,3.15-2.19,5.19,0,1.33.34,2.57,1.01,3.74.67,1.17,1.59,2.07,2.77,2.72,1.17.64,2.49.97,3.94.97,2.67,0,4.85-1.06,6.54-3.19l1.85,1.22c-.87,1.31-2.04,2.32-3.5,3.04-1.47.72-3.13,1.08-5,1.08-2.87,0-5.25-.92-7.15-2.74s-2.84-4.05-2.84-6.66c0-1.76.44-3.39,1.33-4.9.89-1.51,2.1-2.69,3.65-3.53,1.55-.84,3.28-1.27,5.19-1.27,1.2,0,2.36.18,3.48.55,1.12.37,2.07.85,2.85,1.44.78.59,1.44,1.34,1.99,2.25Z" fill="#1d1d1b"/><path d="M845.77,133.52l1.97,1.04c-.65,1.27-1.39,2.29-2.24,3.07-.84.78-1.8,1.37-2.86,1.78-1.06.41-2.25.61-3.59.61-2.96,0-5.28-.97-6.95-2.91-1.67-1.94-2.51-4.14-2.51-6.59,0-2.31.71-4.36,2.12-6.16,1.79-2.29,4.19-3.44,7.2-3.44s5.57,1.17,7.42,3.52c1.31,1.66,1.98,3.73,2,6.21h-16.35c.04,2.11.72,3.84,2.02,5.19,1.3,1.35,2.91,2.02,4.83,2.02.92,0,1.83-.16,2.7-.48.87-.32,1.62-.75,2.23-1.28.61-.53,1.27-1.39,1.99-2.58ZM845.77,128.63c-.31-1.25-.77-2.24-1.36-2.99-.6-.74-1.38-1.34-2.37-1.8-.98-.46-2.01-.69-3.09-.69-1.79,0-3.32.57-4.6,1.72-.94.83-1.65,2.09-2.13,3.76h13.54Z" fill="#1d1d1b"/><path d="M877.57,114.36v25.18h-2.3v-3.12c-.98,1.19-2.08,2.09-3.3,2.69-1.22.6-2.55.9-4,.9-2.57,0-4.77-.93-6.59-2.8-1.82-1.86-2.73-4.13-2.73-6.81s.92-4.85,2.76-6.71c1.84-1.86,4.05-2.79,6.63-2.79,1.49,0,2.84.32,4.05.95,1.21.63,2.27,1.59,3.18,2.86v-10.35h2.3ZM868.23,123.16c-1.3,0-2.5.32-3.6.96-1.1.64-1.98,1.54-2.63,2.69-.65,1.16-.97,2.38-.97,3.67s.33,2.5.98,3.67c.66,1.17,1.54,2.08,2.64,2.73,1.11.65,2.29.97,3.56.97s2.49-.32,3.64-.97c1.15-.65,2.03-1.52,2.64-2.62.62-1.1.93-2.34.93-3.72,0-2.1-.69-3.86-2.08-5.27-1.38-1.41-3.09-2.12-5.11-2.12Z" fill="#1d1d1b"/><path d="M896.79,133.52l1.97,1.04c-.65,1.27-1.39,2.29-2.24,3.07-.85.78-1.8,1.37-2.86,1.78-1.06.41-2.25.61-3.59.61-2.96,0-5.28-.97-6.95-2.91-1.67-1.94-2.51-4.14-2.51-6.59,0-2.31.71-4.36,2.12-6.16,1.79-2.29,4.19-3.44,7.2-3.44s5.57,1.17,7.42,3.52c1.31,1.66,1.98,3.73,2,6.21h-16.35c.05,2.11.72,3.84,2.02,5.19,1.3,1.35,2.91,2.02,4.83,2.02.92,0,1.83-.16,2.7-.48.87-.32,1.62-.75,2.23-1.28.61-.53,1.27-1.39,1.99-2.58ZM896.79,128.63c-.31-1.25-.77-2.24-1.36-2.99-.6-.74-1.38-1.34-2.37-1.8-.98-.46-2.01-.69-3.09-.69-1.79,0-3.32.57-4.6,1.72-.94.83-1.65,2.09-2.13,3.76h13.54Z" fill="#1d1d1b"/><path d="M908.74,121.38h2.49l6.1,13.24,6.03-13.24h2.5l-8.32,18.17h-.44l-8.37-18.17Z" fill="#1d1d1b"/><path d="M936.65,120.91c2.8,0,5.12,1.01,6.96,3.04,1.67,1.85,2.51,4.03,2.51,6.56s-.88,4.76-2.65,6.65c-1.77,1.9-4.04,2.85-6.82,2.85s-5.07-.95-6.83-2.85c-1.77-1.9-2.65-4.12-2.65-6.65s.84-4.7,2.51-6.55c1.84-2.04,4.17-3.05,6.98-3.05ZM936.64,123.2c-1.94,0-3.61.72-5.01,2.15-1.4,1.44-2.09,3.17-2.09,5.21,0,1.31.32,2.54.96,3.68.63,1.13,1.5,2.01,2.58,2.63,1.08.62,2.27.93,3.57.93s2.48-.31,3.57-.93c1.08-.62,1.94-1.49,2.58-2.63.64-1.14.95-2.36.95-3.68,0-2.04-.7-3.77-2.1-5.21-1.4-1.43-3.07-2.15-5-2.15Z" fill="#1d1d1b"/><path d="M947.12,121.38h2.47l6.24,13.99,6.06-13.99h2.49l-10.84,24.81h-2.47l3.5-8.02-7.46-16.79Z" fill="#1d1d1b"/><path d="M984.14,121.38v18.17h-2.31v-3.12c-.98,1.19-2.08,2.09-3.3,2.69-1.22.6-2.55.9-4,.9-2.57,0-4.77-.93-6.59-2.8-1.82-1.86-2.73-4.13-2.73-6.81s.92-4.85,2.76-6.71c1.84-1.86,4.05-2.79,6.63-2.79,1.49,0,2.84.32,4.05.95,1.21.63,2.27,1.59,3.18,2.86v-3.34h2.31ZM974.8,123.16c-1.3,0-2.5.32-3.6.96-1.1.64-1.98,1.54-2.63,2.69-.65,1.16-.98,2.38-.98,3.67s.33,2.5.99,3.67c.65,1.17,1.54,2.08,2.64,2.73,1.11.65,2.29.97,3.56.97s2.49-.32,3.64-.97c1.15-.65,2.03-1.52,2.64-2.62.61-1.1.92-2.34.92-3.72,0-2.1-.69-3.86-2.07-5.27-1.39-1.41-3.09-2.12-5.11-2.12Z" fill="#1d1d1b"/><path d="M1003.7,121.38h2.34v14.48c0,2.55-.22,4.42-.67,5.6-.61,1.67-1.68,2.96-3.19,3.86-1.51.9-3.34,1.35-5.46,1.35-1.56,0-2.96-.22-4.2-.66-1.24-.44-2.25-1.03-3.03-1.77-.78-.74-1.5-1.83-2.15-3.26h2.54c.69,1.2,1.58,2.09,2.68,2.67s2.45.87,4.06.87,2.94-.3,4.04-.89c1.1-.59,1.88-1.34,2.35-2.24s.7-2.35.7-4.35v-.93c-.88,1.11-1.96,1.97-3.23,2.56-1.27.6-2.62.89-4.05.89-1.67,0-3.24-.42-4.71-1.24s-2.61-1.95-3.41-3.35c-.8-1.4-1.2-2.95-1.2-4.62s.42-3.25,1.25-4.7c.84-1.45,1.99-2.6,3.47-3.45,1.48-.84,3.03-1.27,4.67-1.27,1.36,0,2.63.28,3.8.84,1.17.56,2.31,1.49,3.4,2.78v-3.16ZM996.8,123.16c-1.33,0-2.55.32-3.69.96-1.13.64-2.03,1.52-2.67,2.66-.65,1.13-.97,2.35-.97,3.66,0,1.99.67,3.64,2,4.94,1.34,1.3,3.07,1.95,5.19,1.95s3.88-.65,5.19-1.94c1.31-1.29,1.96-2.99,1.96-5.09,0-1.37-.3-2.59-.9-3.67-.6-1.07-1.45-1.92-2.55-2.55-1.1-.62-2.29-.93-3.56-.93Z" fill="#1d1d1b"/><path d="M1024.97,133.52l1.97,1.04c-.65,1.27-1.39,2.29-2.24,3.07-.85.78-1.8,1.37-2.86,1.78-1.06.41-2.25.61-3.59.61-2.96,0-5.28-.97-6.95-2.91-1.67-1.94-2.51-4.14-2.51-6.59,0-2.31.71-4.36,2.12-6.16,1.79-2.29,4.19-3.44,7.2-3.44s5.57,1.17,7.42,3.52c1.31,1.66,1.98,3.73,2,6.21h-16.35c.05,2.11.72,3.84,2.02,5.19,1.3,1.35,2.91,2.02,4.83,2.02.92,0,1.83-.16,2.7-.48.87-.32,1.62-.75,2.23-1.28.61-.53,1.27-1.39,1.99-2.58ZM1024.97,128.63c-.31-1.25-.77-2.24-1.36-2.99-.6-.74-1.38-1.34-2.37-1.8-.98-.46-2.01-.69-3.09-.69-1.79,0-3.32.57-4.6,1.72-.94.83-1.64,2.09-2.13,3.76h13.54Z" fill="#1d1d1b"/><path d="M1039.67,123.36l-1.5,1.56c-1.25-1.22-2.47-1.82-3.67-1.82-.76,0-1.41.25-1.95.75-.54.5-.81,1.08-.81,1.75,0,.59.22,1.15.67,1.69.44.54,1.38,1.18,2.81,1.92,1.74.9,2.92,1.77,3.55,2.61.61.84.92,1.8.92,2.86,0,1.49-.52,2.76-1.57,3.79-1.05,1.04-2.36,1.56-3.93,1.56-1.05,0-2.05-.23-3-.69-.95-.46-1.74-1.09-2.37-1.89l1.47-1.67c1.19,1.35,2.46,2.02,3.8,2.02.94,0,1.74-.3,2.4-.9.66-.6.99-1.31.99-2.12,0-.67-.22-1.26-.65-1.79-.44-.51-1.42-1.16-2.95-1.94-1.64-.84-2.76-1.68-3.35-2.5-.59-.82-.89-1.76-.89-2.82,0-1.38.47-2.53,1.41-3.44s2.13-1.37,3.57-1.37c1.67,0,3.36.82,5.05,2.45Z" fill="#1d1d1b"/><path d="M87.08,0l-1.57,14.24c.84-.08,1.71-.12,2.57-.16l-1-14.08Z" fill="#1d1d1b"/><path d="M88.47,19.64l-.39-5.55c-.88.03-1.74.06-2.57.15l-.65,5.68c1.2-.14,2.4-.25,3.61-.28" fill="#1d1d1b"/><path d="M86.26,133.6l1.59-14.23c-.85.08-1.72.13-2.59.19l.99,14.04Z" fill="#1d1d1b"/><path d="M84.86,114l.41,5.56c.86-.06,1.72-.11,2.59-.18l.62-5.67c-1.18.13-2.4.2-3.61.28" fill="#1d1d1b"/><path d="M153.26,66.39l-14.24-1.58c.08.84.12,1.72.17,2.56l14.07-.99Z" fill="#1d1d1b"/><path d="M133.63,67.78l5.55-.41c-.04-.84-.08-1.71-.16-2.54l-5.67-.65c.17,1.2.22,2.38.28,3.6" fill="#1d1d1b"/><path d="M18.66,65.93l14.28,1.59c-.1-.86-.13-1.7-.18-2.59l-14.11,1Z" fill="#1d1d1b"/><path d="M38.33,64.54l-5.56.41c.04.87.08,1.71.17,2.56l5.63.63c-.12-1.16-.2-2.38-.24-3.59" fill="#1d1d1b"/><path d="M133.35,66.31c0,25.72-20.84,46.55-46.56,46.55s-46.6-20.84-46.6-46.55,20.86-46.58,46.6-46.58c.36,0,.73.06,1.09.08v-9.34c-.36-.02-.73-.06-1.09-.06-30.89,0-55.94,25.01-55.91,55.9,0,30.86,25.03,55.89,55.89,55.89s55.94-25.03,55.94-55.89c0-.22-.04-.4-.05-.56h-9.35c0,.16.03.34.03.56" fill="#1d1d1b"/><path d="M1.82,86.3c12.18,5.31,24.73,5.88,37.88,1.99,13.1-4.05,29.62-11.9,49.59-23.36,20.18-11.5,36.48-19.95,48.82-25.5,12.41-5.38,25.35-7.48,38.81-6.24-9.27-.29-22.29,4.25-39.44,13.29-16.98,9.06-33.2,17.97-48.19,26.37-15.14,8.44-30.45,14.77-46.07,19.38-15.31,4.42-29.72,4.31-43.23-.17l1.82-5.76Z" fill="#1d1d1b" fill-rule="evenodd"/></svg>