<?xml version="1.0" encoding="UTF-8"?><svg id="Calque_1" xmlns="http://www.w3.org/2000/svg" viewBox="0 0 1039.08 146.57"><path d="M229.39,103.87h-11.31v-26.77h-33.66v26.77h-11.22V39.11h11.22v26.78h33.66v-26.78h11.31v64.76Z" fill="#790726"/><path d="M294.07,103.87h-44.52c-3.19,0-5.94-1.14-8.23-3.43-2.3-2.29-3.45-5.05-3.45-8.24v-41.41c0-3.28,1.13-6.05,3.38-8.3,2.25-2.26,5.02-3.37,8.3-3.37h44.52v11.16h-44.97v15.61h44.97v11.21h-44.97v15.55h44.97v11.21Z" fill="#790726"/><path d="M333.8,71.49l21.57,32.38h-13.18l-14.96-22.62-14.96,22.62h-13.09l21.58-32.38-21.58-32.38h13.09l14.96,22.57,14.96-22.57h13.18l-21.57,32.38Z" fill="#790726"/><path d="M406.69,39.11c3.28,0,6.05,1.12,8.3,3.37,2.25,2.25,3.38,5.02,3.38,8.3v53.08h-11.32v-22.12h-33.66v22.12h-11.22v-53.08c0-3.28,1.12-6.05,3.37-8.3,2.25-2.26,5.02-3.37,8.3-3.37h32.84ZM407.05,70.58v-20.31h-33.66v20.31h33.66Z" fill="#790726"/><path d="M483.04,103.87h-44.52c-3.19,0-5.94-1.14-8.23-3.43-2.3-2.29-3.44-5.05-3.44-8.24v-41.41c0-3.28,1.12-6.05,3.37-8.3,2.25-2.26,5.02-3.37,8.3-3.37h44.52v11.16h-44.97v42.38h33.67v-15.55h-20.67v-11.21h31.97v37.98Z" fill="#790726"/><path d="M556.74,50.78v41.41c0,3.28-1.12,6.05-3.37,8.3-2.25,2.26-5.02,3.37-8.31,3.37h-42.1c-3.19,0-5.94-1.14-8.23-3.43-2.29-2.29-3.44-5.05-3.44-8.24v-41.41c0-3.28,1.13-6.05,3.38-8.3,2.25-2.26,5.02-3.37,8.3-3.37h42.38c3.22,0,5.92,1.13,8.12,3.42,2.19,2.28,3.28,5.03,3.28,8.26ZM545.53,92.65v-42.38h-43.01v42.38h43.01Z" fill="#790726"/><path d="M610.07,84.08v-44.97h11.31v64.76h-11.31l-33.66-45.15v45.15h-11.22V39.11h11.22l33.66,44.97Z" fill="#790726"/><path d="M686.06,103.87h-44.51c-3.2,0-5.94-1.14-8.23-3.43-2.3-2.29-3.44-5.05-3.44-8.24v-41.41c0-3.28,1.12-6.05,3.37-8.3,2.25-2.26,5.02-3.37,8.3-3.37h44.51v11.16h-44.97v15.61h44.97v11.21h-44.97v15.55h44.97v11.21Z" fill="#790726"/><path d="M774.96,50.27h-22.54v53.59h-11.13v-53.59h-22.53v-11.16h56.2v11.16Z" fill="#5c5c5b"/><path d="M845.47,50.78v41.41c0,3.28-1.13,6.05-3.37,8.3-2.25,2.26-5.02,3.37-8.3,3.37h-42.1c-3.19,0-5.95-1.14-8.24-3.43-2.29-2.29-3.44-5.05-3.44-8.24v-41.41c0-3.28,1.12-6.05,3.37-8.3,2.25-2.26,5.02-3.37,8.31-3.37h42.38c3.22,0,5.93,1.13,8.11,3.42,2.19,2.28,3.29,5.03,3.29,8.26ZM834.25,92.65v-42.38h-43.01v42.38h43.01Z" fill="#5c5c5b"/><path d="M910.11,92.2c0,3.22-1.14,5.98-3.42,8.25-2.28,2.28-5.04,3.42-8.26,3.42h-32.84c-3.19,0-5.94-1.14-8.23-3.43-2.3-2.29-3.45-5.05-3.45-8.24v-53.09h11.22v53.54h33.66v-53.54h11.31v53.09Z" fill="#5c5c5b"/><path d="M974.74,103.87h-15.78l-19.57-25.81h-9.62v25.81h-11.22V39.11h44.52c3.28,0,6.04,1.12,8.3,3.37,2.26,2.25,3.38,5.02,3.38,8.3v15.6c0,3.23-1.14,5.98-3.42,8.25-2.28,2.28-5.04,3.42-8.26,3.42h-7.48l19.16,25.81ZM963.43,50.27h-33.66v16.56h33.66v-16.56Z" fill="#5c5c5b"/><path d="M1039.01,92.2v.13c0,3.14-1.14,5.82-3.42,8.08-2.31,2.3-5.06,3.46-8.25,3.46h-44.52v-12.13h43.01v-14.64h-31.34c-3.76,0-6.5-.83-8.21-2.51-2.31-2.28-3.46-5.01-3.46-8.21v-15.6c0-3.28,1.11-6.05,3.37-8.3,2.26-2.26,5.02-3.37,8.3-3.37h44.52v11.16h-43.1v15.61h31.34c3.92,0,6.69.82,8.3,2.46,2.22,2.28,3.34,5.05,3.37,8.3l.09,15.55Z" fill="#5c5c5b"/><path d="M733.78,114.91l11.45,24.55h-2.65l-3.86-8.08h-10.58l-3.82,8.08h-2.74l11.61-24.55h.6ZM733.48,120.12l-4.22,8.89h8.4l-4.18-8.89Z" fill="#5c5c5b"/><path d="M762.95,121.3h2.33v14.47c0,2.55-.22,4.41-.66,5.59-.61,1.67-1.68,2.96-3.19,3.86-1.52.9-3.34,1.35-5.46,1.35-1.56,0-2.95-.22-4.19-.66-1.24-.44-2.25-1.03-3.03-1.78-.78-.73-1.51-1.82-2.15-3.24h2.53c.69,1.2,1.59,2.09,2.68,2.66s2.44.87,4.06.87,2.94-.3,4.04-.89c1.09-.6,1.87-1.34,2.34-2.24.46-.9.7-2.35.7-4.35v-.94c-.89,1.11-1.96,1.97-3.23,2.57-1.26.59-2.61.88-4.04.88-1.66,0-3.24-.42-4.71-1.23-1.47-.83-2.6-1.94-3.41-3.35-.79-1.4-1.2-2.94-1.2-4.62s.42-3.25,1.25-4.7c.85-1.45,2-2.6,3.47-3.44,1.48-.85,3.03-1.27,4.66-1.27,1.36,0,2.63.28,3.81.85,1.17.57,2.3,1.49,3.4,2.78v-3.16ZM756.05,123.09c-1.32,0-2.55.32-3.69.96-1.13.64-2.03,1.53-2.67,2.66-.65,1.12-.97,2.34-.97,3.65,0,2.01.66,3.65,2,4.95,1.33,1.3,3.08,1.94,5.2,1.94s3.87-.64,5.18-1.93c1.31-1.29,1.96-2.99,1.96-5.08,0-1.37-.3-2.6-.9-3.68-.6-1.07-1.45-1.92-2.56-2.55-1.1-.62-2.28-.93-3.55-.93Z" fill="#5c5c5b"/><path d="M784.21,133.44l1.97,1.03c-.65,1.26-1.39,2.29-2.23,3.07-.85.78-1.8,1.38-2.86,1.78-1.06.4-2.25.61-3.59.61-2.96,0-5.28-.98-6.95-2.91-1.67-1.94-2.5-4.13-2.5-6.59,0-2.29.71-4.36,2.12-6.16,1.8-2.29,4.19-3.44,7.2-3.44s5.57,1.17,7.41,3.53c1.32,1.65,1.98,3.72,2.01,6.21h-16.34c.04,2.11.72,3.83,2.03,5.18,1.31,1.35,2.91,2.03,4.83,2.03.91,0,1.82-.16,2.7-.48.87-.32,1.61-.75,2.23-1.28.6-.53,1.26-1.39,1.98-2.58ZM784.21,128.54c-.31-1.24-.76-2.23-1.36-2.98-.59-.75-1.38-1.35-2.37-1.81-.98-.45-2-.67-3.08-.67-1.79,0-3.32.57-4.6,1.72-.94.83-1.64,2.08-2.13,3.75h13.54Z" fill="#5c5c5b"/><path d="M789.77,121.3h2.33v3.25c.93-1.24,1.97-2.17,3.11-2.8,1.13-.62,2.37-.93,3.7-.93s2.56.35,3.62,1.04c1.05.68,1.83,1.61,2.33,2.78.5,1.17.75,2.99.75,5.46v9.34h-2.33v-8.66c0-2.09-.09-3.48-.26-4.19-.27-1.2-.79-2.1-1.56-2.71-.76-.62-1.77-.92-3-.92-1.41,0-2.68.47-3.8,1.42-1.12.93-1.85,2.09-2.21,3.46-.22.9-.34,2.55-.34,4.95v6.65h-2.33v-18.15Z" fill="#5c5c5b"/><path d="M826.87,125.08l-1.85,1.15c-1.6-2.12-3.78-3.18-6.55-3.18-2.2,0-4.04.71-5.51,2.13-1.46,1.43-2.19,3.16-2.19,5.19,0,1.32.34,2.57,1.01,3.74.67,1.16,1.59,2.07,2.77,2.72,1.17.65,2.49.96,3.93.96,2.67,0,4.85-1.06,6.54-3.18l1.85,1.21c-.87,1.31-2.04,2.32-3.5,3.04-1.46.71-3.13,1.08-4.99,1.08-2.87,0-5.25-.92-7.15-2.74-1.89-1.83-2.84-4.05-2.84-6.66,0-1.75.45-3.39,1.33-4.9.89-1.51,2.1-2.69,3.65-3.53,1.55-.85,3.28-1.27,5.19-1.27,1.2,0,2.37.19,3.48.55,1.13.37,2.08.86,2.85,1.44.77.59,1.43,1.34,1.98,2.26Z" fill="#5c5c5b"/><path d="M845.27,133.44l1.98,1.03c-.65,1.26-1.39,2.29-2.24,3.07-.84.78-1.8,1.38-2.85,1.78-1.06.4-2.26.61-3.6.61-2.96,0-5.27-.98-6.94-2.91-1.67-1.94-2.51-4.13-2.51-6.59,0-2.29.71-4.36,2.12-6.16,1.8-2.29,4.2-3.44,7.21-3.44s5.56,1.17,7.41,3.53c1.31,1.65,1.98,3.72,2,6.21h-16.33c.04,2.11.71,3.83,2.02,5.18,1.31,1.35,2.91,2.03,4.83,2.03.92,0,1.83-.16,2.7-.48.87-.32,1.62-.75,2.23-1.28.6-.53,1.27-1.39,1.98-2.58ZM845.27,128.54c-.31-1.24-.76-2.23-1.36-2.98-.59-.75-1.37-1.35-2.36-1.81-.98-.45-2.01-.67-3.09-.67-1.78,0-3.32.57-4.59,1.72-.94.83-1.64,2.08-2.12,3.75h13.53Z" fill="#5c5c5b"/><path d="M877.06,114.29v25.16h-2.3v-3.12c-.98,1.2-2.08,2.09-3.3,2.69-1.21.6-2.55.9-4,.9-2.57,0-4.76-.94-6.58-2.8-1.82-1.85-2.73-4.12-2.73-6.8s.92-4.84,2.75-6.7c1.84-1.85,4.05-2.79,6.63-2.79,1.49,0,2.84.32,4.05.95,1.21.64,2.26,1.59,3.18,2.86v-10.35h2.3ZM867.72,123.09c-1.3,0-2.5.32-3.6.96-1.1.63-1.97,1.55-2.63,2.7-.64,1.15-.97,2.37-.97,3.67s.33,2.5.99,3.67c.65,1.16,1.53,2.08,2.64,2.73,1.1.64,2.29.97,3.56.97s2.49-.32,3.64-.96c1.14-.65,2.02-1.52,2.64-2.62.62-1.09.93-2.34.93-3.72,0-2.1-.7-3.86-2.08-5.26-1.38-1.41-3.09-2.12-5.11-2.12Z" fill="#5c5c5b"/><path d="M896.27,133.44l1.97,1.03c-.64,1.26-1.39,2.29-2.23,3.07-.85.78-1.8,1.38-2.85,1.78-1.06.4-2.26.61-3.6.61-2.96,0-5.27-.98-6.94-2.91-1.67-1.94-2.51-4.13-2.51-6.59,0-2.29.71-4.36,2.12-6.16,1.79-2.29,4.19-3.44,7.2-3.44s5.56,1.17,7.41,3.53c1.31,1.65,1.98,3.72,2,6.21h-16.34c.05,2.11.73,3.83,2.03,5.18,1.3,1.35,2.92,2.03,4.83,2.03.93,0,1.83-.16,2.7-.48.87-.32,1.62-.75,2.23-1.28.61-.53,1.27-1.39,1.98-2.58ZM896.27,128.54c-.31-1.24-.76-2.23-1.36-2.98-.59-.75-1.38-1.35-2.36-1.81-.98-.45-2.01-.67-3.09-.67-1.78,0-3.32.57-4.59,1.72-.94.83-1.65,2.08-2.12,3.75h13.53Z" fill="#5c5c5b"/><path d="M908.2,121.3h2.49l6.09,13.24,6.02-13.24h2.5l-8.3,18.15h-.44l-8.37-18.15Z" fill="#5c5c5b"/><path d="M936.09,120.83c2.8,0,5.12,1.01,6.96,3.04,1.67,1.84,2.5,4.03,2.5,6.55s-.89,4.75-2.65,6.65c-1.77,1.9-4.04,2.85-6.82,2.85s-5.06-.95-6.83-2.85c-1.76-1.9-2.65-4.12-2.65-6.65s.84-4.7,2.51-6.54c1.83-2.03,4.16-3.06,6.97-3.06ZM936.09,123.12c-1.94,0-3.61.72-5.01,2.15-1.4,1.44-2.09,3.18-2.09,5.21,0,1.31.32,2.54.96,3.67.63,1.13,1.49,2.01,2.57,2.63,1.08.62,2.28.92,3.57.92s2.49-.3,3.57-.92c1.08-.62,1.94-1.5,2.59-2.63.63-1.13.95-2.36.95-3.67,0-2.04-.7-3.77-2.1-5.21-1.4-1.43-3.06-2.15-5-2.15Z" fill="#5c5c5b"/><path d="M946.56,121.3h2.46l6.25,13.98,6.06-13.98h2.49l-10.83,24.8h-2.47l3.5-8.02-7.45-16.78Z" fill="#5c5c5b"/><path d="M983.56,121.3v18.15h-2.3v-3.12c-.98,1.2-2.08,2.09-3.3,2.69-1.22.6-2.55.9-4,.9-2.57,0-4.77-.94-6.58-2.8-1.81-1.85-2.73-4.12-2.73-6.8s.92-4.84,2.75-6.7c1.83-1.85,4.05-2.79,6.62-2.79,1.5,0,2.84.32,4.05.95,1.21.64,2.27,1.59,3.18,2.86v-3.34h2.3ZM974.22,123.09c-1.3,0-2.5.32-3.59.96-1.11.63-1.98,1.55-2.63,2.7-.65,1.15-.98,2.37-.98,3.67s.33,2.5.99,3.67c.65,1.16,1.53,2.08,2.64,2.73,1.1.64,2.29.97,3.55.97s2.48-.32,3.64-.96c1.14-.65,2.02-1.52,2.64-2.62.61-1.09.92-2.34.92-3.72,0-2.1-.69-3.86-2.07-5.26-1.39-1.41-3.09-2.12-5.11-2.12Z" fill="#5c5c5b"/><path d="M1003.11,121.3h2.33v14.47c0,2.55-.22,4.41-.67,5.59-.61,1.67-1.67,2.96-3.19,3.86-1.52.9-3.34,1.35-5.46,1.35-1.56,0-2.95-.22-4.19-.66-1.24-.44-2.25-1.03-3.03-1.78-.78-.73-1.5-1.82-2.15-3.24h2.53c.69,1.2,1.59,2.09,2.68,2.66,1.09.58,2.44.87,4.06.87s2.94-.3,4.04-.89c1.09-.6,1.87-1.34,2.34-2.24.47-.9.7-2.35.7-4.35v-.94c-.89,1.11-1.96,1.97-3.23,2.57-1.26.59-2.61.88-4.04.88-1.67,0-3.24-.42-4.71-1.23-1.47-.83-2.6-1.94-3.41-3.35-.79-1.4-1.2-2.94-1.2-4.62s.42-3.25,1.25-4.7c.84-1.45,2-2.6,3.47-3.44,1.47-.85,3.03-1.27,4.66-1.27,1.36,0,2.63.28,3.81.85,1.17.57,2.3,1.49,3.4,2.78v-3.16ZM996.21,123.09c-1.32,0-2.55.32-3.68.96-1.14.64-2.03,1.53-2.68,2.66-.64,1.12-.96,2.34-.96,3.65,0,2.01.66,3.65,2,4.95,1.33,1.3,3.07,1.94,5.2,1.94s3.87-.64,5.18-1.93c1.31-1.29,1.96-2.99,1.96-5.08,0-1.37-.3-2.6-.9-3.68-.6-1.07-1.45-1.92-2.56-2.55-1.1-.62-2.28-.93-3.55-.93Z" fill="#5c5c5b"/><path d="M1024.37,133.44l1.97,1.03c-.65,1.26-1.39,2.29-2.24,3.07-.84.78-1.8,1.38-2.86,1.78-1.06.4-2.26.61-3.59.61-2.96,0-5.29-.98-6.95-2.91-1.67-1.94-2.5-4.13-2.5-6.59,0-2.29.71-4.36,2.12-6.16,1.8-2.29,4.19-3.44,7.2-3.44s5.57,1.17,7.41,3.53c1.32,1.65,1.99,3.72,2.01,6.21h-16.34c.04,2.11.71,3.83,2.02,5.18,1.3,1.35,2.91,2.03,4.83,2.03.92,0,1.82-.16,2.7-.48.87-.32,1.62-.75,2.24-1.28.6-.53,1.26-1.39,1.98-2.58ZM1024.37,128.54c-.31-1.24-.77-2.23-1.36-2.98-.59-.75-1.37-1.35-2.36-1.81-.98-.45-2.01-.67-3.09-.67-1.78,0-3.31.57-4.59,1.72-.94.83-1.64,2.08-2.13,3.75h13.54Z" fill="#5c5c5b"/><path d="M1039.05,123.29l-1.49,1.55c-1.25-1.21-2.47-1.82-3.66-1.82-.76,0-1.41.24-1.96.76-.54.49-.81,1.08-.81,1.74,0,.6.22,1.16.68,1.69.44.55,1.37,1.19,2.81,1.92,1.74.9,2.92,1.77,3.54,2.61.62.84.92,1.79.92,2.85,0,1.48-.52,2.75-1.57,3.79-1.05,1.04-2.36,1.55-3.93,1.55-1.04,0-2.04-.22-3-.68-.95-.46-1.74-1.09-2.36-1.89l1.47-1.66c1.19,1.35,2.46,2.01,3.79,2.01.94,0,1.74-.3,2.4-.89.65-.6.98-1.32.98-2.13,0-.66-.22-1.26-.65-1.79-.43-.5-1.41-1.15-2.94-1.93-1.64-.85-2.75-1.68-3.34-2.5-.6-.82-.89-1.76-.89-2.81,0-1.39.47-2.53,1.41-3.44.94-.91,2.14-1.37,3.57-1.37,1.67,0,3.36.82,5.04,2.45Z" fill="#5c5c5b"/><path d="M87.03,0l-1.57,14.23c.84-.08,1.71-.12,2.58-.16l-1.01-14.07Z" fill="#790726"/><path d="M88.42,19.62l-.39-5.54c-.88.03-1.74.07-2.58.15l-.65,5.68c1.2-.15,2.4-.24,3.61-.28" fill="#790726"/><path d="M86.21,133.51l1.59-14.23c-.85.08-1.72.14-2.58.19l.99,14.03Z" fill="#790726"/><path d="M84.81,113.93l.41,5.56c.86-.05,1.72-.11,2.58-.17l.62-5.67c-1.18.13-2.4.2-3.61.29" fill="#790726"/><path d="M153.17,66.35l-14.23-1.58c.07.84.12,1.72.17,2.57l14.06-.98Z" fill="#790726"/><path d="M133.55,67.74l5.55-.41c-.04-.84-.08-1.71-.16-2.54l-5.67-.65c.17,1.19.22,2.38.28,3.6" fill="#790726"/><path d="M18.65,65.89l14.28,1.59c-.1-.87-.14-1.7-.18-2.58l-14.09,1Z" fill="#790726"/><path d="M38.3,64.49l-5.56.41c.05.87.08,1.7.17,2.56l5.63.63c-.12-1.17-.2-2.38-.24-3.59" fill="#790726"/><path d="M133.28,66.26c0,25.7-20.83,46.52-46.53,46.52s-46.57-20.82-46.57-46.52,20.86-46.56,46.57-46.56c.35,0,.72.06,1.09.08v-9.33c-.36-.02-.73-.06-1.09-.06-30.87,0-55.9,25-55.88,55.87,0,30.84,25.02,55.85,55.86,55.85s55.91-25.02,55.91-55.85c0-.22-.05-.4-.05-.56h-9.34c0,.16.03.35.04.56" fill="#790726"/><path d="M1.82,86.24c12.16,5.31,24.72,5.88,37.86,2,13.09-4.05,29.61-11.9,49.57-23.35,20.17-11.49,36.45-19.94,48.79-25.48,12.4-5.38,25.33-7.48,38.79-6.24-9.26-.29-22.27,4.25-39.42,13.29-16.97,9.05-33.18,17.96-48.16,26.35-15.14,8.44-30.44,14.77-46.04,19.37-15.3,4.42-29.7,4.32-43.21-.17l1.82-5.76Z" fill="#5c5c5b" fill-rule="evenodd"/></svg>