<?xml version="1.0" encoding="UTF-8"?><svg id="Calque_1" xmlns="http://www.w3.org/2000/svg" viewBox="0 0 1039.22 146.68"><path d="M229.46,103.89h-11.31v-26.78h-33.67v26.78h-11.22V39.11h11.22v26.78h33.67v-26.78h11.31v64.78Z" fill="#fff"/><path d="M294.14,103.89h-44.52c-3.19,0-5.94-1.15-8.23-3.44-2.3-2.3-3.45-5.04-3.45-8.23v-41.42c0-3.28,1.13-6.05,3.38-8.3,2.25-2.25,5.02-3.38,8.3-3.38h44.52v11.18h-44.98v15.6h44.98v11.22h-44.98v15.55h44.98v11.22Z" fill="#fff"/><path d="M333.87,71.5l21.58,32.39h-13.18l-14.96-22.63-14.96,22.63h-13.09l21.58-32.39-21.58-32.39h13.09l14.96,22.58,14.96-22.58h13.18l-21.58,32.39Z" fill="#fff"/><path d="M406.76,39.11c3.29,0,6.05,1.13,8.3,3.38,2.25,2.25,3.38,5.02,3.38,8.3v53.1h-11.31v-22.12h-33.66v22.12h-11.22v-53.1c0-3.28,1.13-6.05,3.38-8.3,2.25-2.25,5.02-3.38,8.3-3.38h32.84ZM407.13,70.59v-20.3h-33.66v20.3h33.66Z" fill="#fff"/><path d="M483.13,103.89h-44.52c-3.19,0-5.94-1.15-8.23-3.44-2.3-2.3-3.44-5.04-3.44-8.23v-41.42c0-3.28,1.12-6.05,3.37-8.3,2.25-2.25,5.02-3.38,8.3-3.38h44.52v11.18h-44.98v42.38h33.67v-15.55h-20.66v-11.22h31.97v38Z" fill="#fff"/><path d="M556.84,50.79v41.42c0,3.28-1.13,6.05-3.38,8.3s-5.02,3.38-8.3,3.38h-42.1c-3.19,0-5.94-1.15-8.23-3.44-2.3-2.3-3.44-5.04-3.44-8.23v-41.42c0-3.28,1.13-6.05,3.38-8.3s5.02-3.38,8.3-3.38h42.38c3.22,0,5.93,1.14,8.12,3.42,2.19,2.28,3.29,5.03,3.29,8.26ZM545.62,92.67v-42.38h-43.02v42.38h43.02Z" fill="#fff"/><path d="M610.17,84.09v-44.98h11.31v64.78h-11.31l-33.67-45.16v45.16h-11.22V39.11h11.22l33.67,44.98Z" fill="#fff"/><path d="M686.17,103.89h-44.52c-3.19,0-5.94-1.15-8.23-3.44-2.3-2.3-3.44-5.04-3.44-8.23v-41.42c0-3.28,1.13-6.05,3.38-8.3,2.25-2.25,5.02-3.38,8.3-3.38h44.52v11.18h-44.98v15.6h44.98v11.22h-44.98v15.55h44.98v11.22Z" fill="#fff"/><path d="M775.07,50.29h-22.53v53.6h-11.13v-53.6h-22.53v-11.18h56.2v11.18Z" fill="#fff"/><path d="M845.6,50.79v41.42c0,3.28-1.13,6.05-3.38,8.3s-5.02,3.38-8.3,3.38h-42.1c-3.19,0-5.94-1.15-8.23-3.44-2.3-2.3-3.44-5.04-3.44-8.23v-41.42c0-3.28,1.13-6.05,3.38-8.3,2.25-2.25,5.02-3.38,8.3-3.38h42.38c3.22,0,5.93,1.14,8.12,3.42,2.19,2.28,3.29,5.03,3.29,8.26ZM834.37,92.67v-42.38h-43.02v42.38h43.02Z" fill="#fff"/><path d="M910.23,92.21c0,3.22-1.14,5.97-3.42,8.26-2.28,2.28-5.03,3.42-8.26,3.42h-32.85c-3.19,0-5.94-1.15-8.23-3.44-2.3-2.3-3.44-5.04-3.44-8.23v-53.1h11.22v53.55h33.67v-53.55h11.31v53.1Z" fill="#fff"/><path d="M974.87,103.89h-15.78l-19.57-25.82h-9.63v25.82h-11.22V39.11h44.52c3.28,0,6.05,1.13,8.3,3.38,2.25,2.25,3.38,5.02,3.38,8.3v15.6c0,3.22-1.14,5.97-3.42,8.26-2.28,2.28-5.03,3.42-8.26,3.42h-7.48l19.16,25.82ZM963.56,50.29h-33.67v16.56h33.67v-16.56Z" fill="#fff"/><path d="M1039.15,92.21v.13c0,3.13-1.14,5.83-3.42,8.08-2.31,2.31-5.07,3.47-8.26,3.47h-44.52v-12.13h43.02v-14.64h-31.34c-3.77,0-6.51-.84-8.21-2.51-2.31-2.28-3.47-5.02-3.47-8.21v-15.6c0-3.28,1.13-6.05,3.38-8.3,2.25-2.25,5.02-3.38,8.3-3.38h44.52v11.18h-43.11v15.6h31.34c3.92,0,6.69.82,8.3,2.46,2.22,2.28,3.35,5.05,3.37,8.3l.09,15.56Z" fill="#fff"/><path d="M733.9,114.92l11.45,24.55h-2.65l-3.86-8.08h-10.58l-3.82,8.08h-2.74l11.6-24.55h.6ZM733.59,120.14l-4.21,8.89h8.39l-4.19-8.89Z" fill="#fff"/><path d="M763.06,121.32h2.34v14.47c0,2.55-.22,4.41-.67,5.59-.61,1.67-1.68,2.95-3.19,3.86-1.51.9-3.33,1.35-5.46,1.35-1.56,0-2.96-.22-4.2-.66s-2.25-1.03-3.03-1.77c-.78-.74-1.5-1.83-2.15-3.26h2.54c.69,1.2,1.58,2.09,2.67,2.67,1.09.58,2.44.87,4.06.87s2.94-.3,4.04-.89c1.1-.59,1.88-1.34,2.35-2.24s.7-2.35.7-4.35v-.93c-.88,1.11-1.96,1.97-3.22,2.56-1.27.59-2.62.89-4.04.89-1.67,0-3.24-.42-4.71-1.24-1.47-.83-2.61-1.94-3.41-3.35-.8-1.4-1.2-2.94-1.2-4.62s.42-3.25,1.25-4.7c.84-1.45,1.99-2.6,3.47-3.45,1.48-.84,3.03-1.27,4.67-1.27,1.36,0,2.63.28,3.8.84,1.17.56,2.31,1.49,3.4,2.78v-3.15ZM756.17,123.1c-1.32,0-2.55.32-3.69.96-1.13.64-2.03,1.52-2.67,2.65-.65,1.13-.97,2.35-.97,3.66,0,1.99.67,3.64,2,4.94,1.34,1.3,3.07,1.95,5.19,1.95s3.88-.65,5.18-1.94c1.31-1.29,1.96-2.99,1.96-5.09,0-1.37-.3-2.59-.9-3.66-.6-1.07-1.45-1.92-2.55-2.55-1.1-.62-2.29-.93-3.56-.93Z" fill="#fff"/><path d="M784.32,133.45l1.97,1.04c-.65,1.27-1.39,2.29-2.24,3.07-.84.78-1.8,1.37-2.86,1.78-1.06.41-2.25.61-3.59.61-2.96,0-5.28-.97-6.95-2.91-1.67-1.94-2.51-4.14-2.51-6.59,0-2.3.71-4.36,2.12-6.16,1.79-2.29,4.19-3.44,7.2-3.44s5.57,1.17,7.42,3.52c1.31,1.66,1.98,3.73,2,6.21h-16.34c.04,2.11.72,3.84,2.02,5.19,1.3,1.35,2.91,2.02,4.83,2.02.92,0,1.82-.16,2.7-.48.87-.32,1.62-.75,2.23-1.28.61-.53,1.27-1.39,1.99-2.58ZM784.32,128.56c-.31-1.25-.77-2.24-1.36-2.99-.6-.74-1.38-1.34-2.37-1.8-.98-.46-2.01-.68-3.09-.68-1.78,0-3.32.57-4.6,1.72-.94.83-1.64,2.09-2.12,3.75h13.54Z" fill="#fff"/><path d="M789.88,121.32h2.34v3.25c.93-1.25,1.97-2.18,3.1-2.79,1.13-.62,2.37-.93,3.7-.93s2.56.35,3.61,1.04c1.05.69,1.83,1.62,2.33,2.79.5,1.17.75,2.99.75,5.46v9.35h-2.34v-8.66c0-2.09-.09-3.49-.26-4.19-.27-1.2-.79-2.1-1.56-2.71-.77-.61-1.77-.91-3.01-.91-1.41,0-2.68.47-3.8,1.4-1.12.93-1.86,2.09-2.21,3.47-.22.9-.33,2.55-.33,4.94v6.66h-2.34v-18.16Z" fill="#fff"/><path d="M826.99,125.09l-1.85,1.15c-1.6-2.12-3.79-3.19-6.55-3.19-2.21,0-4.05.71-5.51,2.14-1.46,1.42-2.19,3.15-2.19,5.18,0,1.32.34,2.57,1.01,3.74.67,1.17,1.59,2.07,2.77,2.72,1.17.64,2.49.97,3.94.97,2.67,0,4.85-1.06,6.54-3.19l1.85,1.22c-.87,1.31-2.03,2.32-3.5,3.04-1.46.72-3.13,1.08-5,1.08-2.87,0-5.25-.91-7.14-2.74s-2.84-4.04-2.84-6.66c0-1.76.44-3.39,1.32-4.9.89-1.51,2.1-2.69,3.65-3.53,1.55-.84,3.28-1.27,5.19-1.27,1.2,0,2.36.18,3.48.55,1.12.37,2.07.85,2.85,1.44.78.59,1.44,1.34,1.99,2.25Z" fill="#fff"/><path d="M845.4,133.45l1.97,1.04c-.65,1.27-1.39,2.29-2.24,3.07-.84.78-1.8,1.37-2.86,1.78-1.06.41-2.25.61-3.59.61-2.96,0-5.28-.97-6.95-2.91-1.67-1.94-2.51-4.14-2.51-6.59,0-2.3.71-4.36,2.12-6.16,1.79-2.29,4.19-3.44,7.2-3.44s5.57,1.17,7.42,3.52c1.31,1.66,1.98,3.73,2,6.21h-16.34c.05,2.11.72,3.84,2.02,5.19,1.3,1.35,2.91,2.02,4.83,2.02.92,0,1.82-.16,2.7-.48.87-.32,1.62-.75,2.23-1.28.61-.53,1.27-1.39,1.99-2.58ZM845.4,128.56c-.31-1.25-.77-2.24-1.36-2.99-.6-.74-1.38-1.34-2.37-1.8-.98-.46-2.01-.68-3.09-.68-1.78,0-3.32.57-4.6,1.72-.94.83-1.64,2.09-2.12,3.75h13.54Z" fill="#fff"/><path d="M877.18,114.31v25.17h-2.3v-3.12c-.98,1.19-2.08,2.09-3.3,2.69-1.22.6-2.55.9-4,.9-2.57,0-4.76-.93-6.58-2.8-1.82-1.86-2.73-4.13-2.73-6.8s.92-4.85,2.76-6.71c1.84-1.86,4.04-2.79,6.63-2.79,1.49,0,2.84.32,4.05.95,1.21.63,2.26,1.59,3.18,2.85v-10.35h2.3ZM867.85,123.1c-1.3,0-2.5.32-3.6.96-1.1.64-1.98,1.54-2.63,2.69-.65,1.16-.97,2.38-.97,3.67s.33,2.5.98,3.67c.66,1.17,1.54,2.08,2.64,2.73,1.11.65,2.29.97,3.56.97s2.49-.32,3.63-.97c1.14-.65,2.03-1.52,2.64-2.62.62-1.1.93-2.34.93-3.72,0-2.1-.69-3.86-2.08-5.27-1.38-1.41-3.09-2.12-5.11-2.12Z" fill="#fff"/><path d="M896.4,133.45l1.97,1.04c-.65,1.27-1.39,2.29-2.24,3.07-.84.78-1.8,1.37-2.86,1.78-1.06.41-2.25.61-3.59.61-2.96,0-5.28-.97-6.95-2.91-1.67-1.94-2.51-4.14-2.51-6.59,0-2.3.71-4.36,2.12-6.16,1.79-2.29,4.19-3.44,7.2-3.44s5.57,1.17,7.42,3.52c1.31,1.66,1.98,3.73,2,6.21h-16.34c.04,2.11.72,3.84,2.02,5.19,1.3,1.35,2.91,2.02,4.83,2.02.92,0,1.82-.16,2.7-.48.87-.32,1.62-.75,2.23-1.28.61-.53,1.27-1.39,1.99-2.58ZM896.4,128.56c-.31-1.25-.77-2.24-1.36-2.99-.6-.74-1.38-1.34-2.37-1.8-.98-.46-2.01-.68-3.09-.68-1.78,0-3.32.57-4.6,1.72-.94.83-1.64,2.09-2.12,3.75h13.54Z" fill="#fff"/><path d="M908.33,121.32h2.49l6.1,13.24,6.02-13.24h2.5l-8.31,18.16h-.43l-8.36-18.16Z" fill="#fff"/><path d="M936.23,120.85c2.8,0,5.12,1.01,6.96,3.04,1.67,1.85,2.51,4.03,2.51,6.56s-.88,4.75-2.65,6.65c-1.76,1.9-4.04,2.85-6.81,2.85s-5.06-.95-6.83-2.85c-1.77-1.9-2.65-4.11-2.65-6.65s.84-4.69,2.51-6.54c1.84-2.03,4.16-3.05,6.97-3.05ZM936.22,123.14c-1.94,0-3.61.72-5.01,2.15-1.39,1.44-2.09,3.17-2.09,5.21,0,1.31.32,2.54.96,3.67.63,1.13,1.5,2.01,2.58,2.63,1.08.62,2.27.93,3.57.93s2.48-.31,3.57-.93c1.08-.62,1.94-1.49,2.58-2.63.64-1.14.95-2.36.95-3.67,0-2.04-.7-3.77-2.1-5.21-1.4-1.43-3.07-2.15-5-2.15Z" fill="#fff"/><path d="M946.69,121.32h2.47l6.24,13.98,6.06-13.98h2.49l-10.83,24.8h-2.47l3.5-8.02-7.45-16.78Z" fill="#fff"/><path d="M983.7,121.32v18.16h-2.3v-3.12c-.98,1.19-2.08,2.09-3.3,2.69-1.22.6-2.55.9-4,.9-2.57,0-4.76-.93-6.58-2.8-1.82-1.86-2.73-4.13-2.73-6.8s.92-4.85,2.76-6.71c1.84-1.86,4.04-2.79,6.63-2.79,1.49,0,2.84.32,4.05.95,1.21.63,2.27,1.59,3.18,2.85v-3.34h2.3ZM974.36,123.1c-1.3,0-2.5.32-3.6.96-1.1.64-1.98,1.54-2.62,2.69-.65,1.16-.98,2.38-.98,3.67s.33,2.5.99,3.67c.65,1.17,1.54,2.08,2.64,2.73,1.11.65,2.29.97,3.56.97s2.49-.32,3.63-.97c1.15-.65,2.03-1.52,2.64-2.62.61-1.1.92-2.34.92-3.72,0-2.1-.69-3.86-2.07-5.27-1.39-1.41-3.09-2.12-5.11-2.12Z" fill="#fff"/><path d="M1003.24,121.32h2.34v14.47c0,2.55-.22,4.41-.67,5.59-.61,1.67-1.68,2.95-3.19,3.86-1.51.9-3.33,1.35-5.46,1.35-1.56,0-2.96-.22-4.2-.66-1.24-.44-2.25-1.03-3.03-1.77-.78-.74-1.5-1.83-2.15-3.26h2.54c.69,1.2,1.58,2.09,2.67,2.67,1.09.58,2.44.87,4.06.87s2.94-.3,4.04-.89c1.1-.59,1.88-1.34,2.35-2.24s.7-2.35.7-4.35v-.93c-.88,1.11-1.96,1.97-3.22,2.56-1.27.59-2.62.89-4.04.89-1.67,0-3.24-.42-4.71-1.24-1.47-.83-2.61-1.94-3.41-3.35-.8-1.4-1.2-2.94-1.2-4.62s.42-3.25,1.25-4.7c.84-1.45,1.99-2.6,3.47-3.45,1.48-.84,3.03-1.27,4.67-1.27,1.36,0,2.63.28,3.8.84,1.17.56,2.31,1.49,3.4,2.78v-3.15ZM996.35,123.1c-1.32,0-2.55.32-3.69.96-1.13.64-2.03,1.52-2.67,2.65-.65,1.13-.97,2.35-.97,3.66,0,1.99.67,3.64,2,4.94,1.34,1.3,3.07,1.95,5.19,1.95s3.88-.65,5.18-1.94c1.31-1.29,1.96-2.99,1.96-5.09,0-1.37-.3-2.59-.9-3.66-.6-1.07-1.45-1.92-2.55-2.55-1.1-.62-2.29-.93-3.56-.93Z" fill="#fff"/><path d="M1024.51,133.45l1.97,1.04c-.65,1.27-1.39,2.29-2.24,3.07-.84.78-1.8,1.37-2.86,1.78-1.06.41-2.25.61-3.59.61-2.96,0-5.28-.97-6.95-2.91-1.67-1.94-2.51-4.14-2.51-6.59,0-2.3.71-4.36,2.12-6.16,1.79-2.29,4.19-3.44,7.2-3.44s5.57,1.17,7.42,3.52c1.31,1.66,1.98,3.73,2,6.21h-16.34c.04,2.11.72,3.84,2.02,5.19,1.3,1.35,2.91,2.02,4.83,2.02.92,0,1.82-.16,2.7-.48.87-.32,1.62-.75,2.23-1.28.61-.53,1.27-1.39,1.99-2.58ZM1024.51,128.56c-.31-1.25-.77-2.24-1.36-2.99-.6-.74-1.38-1.34-2.37-1.8-.98-.46-2.01-.68-3.09-.68-1.78,0-3.32.57-4.6,1.72-.94.83-1.64,2.09-2.12,3.75h13.54Z" fill="#fff"/><path d="M1039.2,123.3l-1.5,1.55c-1.25-1.22-2.47-1.82-3.66-1.82-.76,0-1.41.25-1.95.75-.54.5-.81,1.08-.81,1.75,0,.59.22,1.15.67,1.69.44.54,1.38,1.18,2.81,1.92,1.74.9,2.92,1.77,3.55,2.6.61.84.92,1.8.92,2.85,0,1.49-.52,2.76-1.57,3.79-1.05,1.04-2.36,1.55-3.93,1.55-1.05,0-2.05-.23-3-.68-.95-.46-1.74-1.09-2.37-1.89l1.47-1.67c1.19,1.35,2.46,2.02,3.8,2.02.94,0,1.73-.3,2.39-.9.66-.6.99-1.31.99-2.12,0-.67-.22-1.26-.65-1.79-.43-.51-1.42-1.16-2.94-1.94-1.64-.84-2.76-1.68-3.34-2.5-.59-.82-.89-1.76-.89-2.82,0-1.38.47-2.53,1.41-3.44s2.13-1.37,3.57-1.37c1.67,0,3.36.82,5.05,2.45Z" fill="#fff"/><path d="M87.08,0l-1.57,14.23c.84-.08,1.71-.12,2.57-.16l-1-14.07Z" fill="#fff"/><path d="M88.47,19.63l-.39-5.55c-.88.03-1.73.06-2.57.15l-.65,5.68c1.2-.14,2.4-.25,3.61-.28" fill="#fff"/><path d="M86.26,133.53l1.59-14.22c-.85.08-1.72.13-2.58.19l.99,14.03Z" fill="#fff"/><path d="M84.86,113.94l.41,5.56c.86-.06,1.72-.11,2.58-.18l.62-5.66c-1.18.13-2.4.2-3.61.28" fill="#fff"/><path d="M153.23,66.36l-14.23-1.58c.08.84.12,1.72.17,2.56l14.06-.99Z" fill="#fff"/><path d="M133.6,67.74l5.55-.41c-.04-.84-.08-1.71-.16-2.54l-5.67-.65c.17,1.2.22,2.38.28,3.6" fill="#fff"/><path d="M18.7,65.9l14.28,1.59c-.1-.86-.13-1.7-.18-2.58l-14.1,1Z" fill="#fff"/><path d="M38.35,64.51l-5.56.41c.04.87.08,1.71.17,2.56l5.63.63c-.12-1.16-.2-2.38-.24-3.59" fill="#fff"/><path d="M133.33,66.28c0,25.7-20.83,46.53-46.53,46.53s-46.57-20.82-46.57-46.53,20.85-46.56,46.57-46.56c.36,0,.73.06,1.09.08v-9.33c-.36-.02-.73-.06-1.09-.06-30.87,0-55.91,25-55.89,55.87,0,30.84,25.01,55.86,55.87,55.86s55.92-25.02,55.92-55.86c0-.22-.04-.4-.05-.56h-9.34c0,.16.03.34.03.56" fill="#fff"/><path d="M1.86,86.26c12.17,5.31,24.72,5.87,37.86,1.99,13.09-4.05,29.61-11.89,49.57-23.35,20.17-11.49,36.46-19.94,48.79-25.49,12.4-5.38,25.33-7.48,38.79-6.24-9.26-.29-22.28,4.25-39.42,13.28-16.97,9.06-33.19,17.96-48.17,26.35-15.14,8.44-30.44,14.77-46.04,19.37-15.3,4.41-29.7,4.31-43.21-.17l1.82-5.76Z" fill="#fff" fill-rule="evenodd"/></svg>